# xmcd
# 
# Track frame offsets:
#     150
#     20704
#     39365
#     61778
#     79482
#     100092
#     125088
#     143157
#     164316
#     182200
# 
# Disc length: 2780
# 
# Revision: 1
# Processed by: cddbd v1.5.2PL0 Copyright (c) Steve Scherf et al.
# Submitted via: fre:ac v1.0.31
# 
DISCID=860ada0a
DTITLE=Neal Black And The Healers - Dreams Are For Losers
DYEAR=2003
DGENRE=Blues
TTITLE0=Yea I Lied
TTITLE1=The King Of San Antone
TTITLE2=Dreams Are For Losers
TTITLE3=Take Me (World's On Fire)
TTITLE4=Hotel Room In Mexico
TTITLE5=It Don't Make Sense (You Can't Make Peace)
TTITLE6=Shut Up And Confess
TTITLE7=Pigalle 4 A.M.
TTITLE8=Fallin' Rain
TTITLE9=You're Gonna Make It
EXTD=
EXTT0=
EXTT1=
EXTT2=
EXTT3=
EXTT4=
EXTT5=
EXTT6=
EXTT7=
EXTT8=
EXTT9=
PLAYORDER=
